<?xml version="1.0" standalone="no"?><!DOCTYPE svg PUBLIC "-//W3C//DTD SVG 1.1//EN" "http://www.w3.org/Graphics/SVG/1.1/DTD/svg11.dtd"><svg t="1769178012352" class="icon" viewBox="0 0 1024 1024" version="1.1" xmlns="http://www.w3.org/2000/svg" p-id="8340" xmlns:xlink="http://www.w3.org/1999/xlink" width="128" height="128"><path d="M511.926857 900.242286c10.971429 0 20.114286-3.949714 27.648-11.776a39.277714 39.277714 0 0 0 11.264-28.16V190.610286h198.656c9.508571 0 17.773714-3.437714 24.576-10.24a33.499429 33.499429 0 0 0 10.24-24.576c0-9.508571-3.437714-17.554286-10.24-24.064a34.377143 34.377143 0 0 0-24.576-9.728H274.358857a34.377143 34.377143 0 0 0-24.576 9.728 31.890286 31.890286 0 0 0-10.24 24.064c0 9.508571 3.437714 17.773714 10.24 24.576 6.802286 6.802286 14.994286 10.24 24.576 10.24h197.632v669.696c0 10.971429 3.949714 20.333714 11.776 28.16a38.4 38.4 0 0 0 28.16 11.776z" fill="#303133" p-id="8341"></path></svg>