<?xml version="1.0" standalone="no"?><!DOCTYPE svg PUBLIC "-//W3C//DTD SVG 1.1//EN" "http://www.w3.org/Graphics/SVG/1.1/DTD/svg11.dtd"><svg t="1769177964411" class="icon" viewBox="0 0 1024 1024" version="1.1" xmlns="http://www.w3.org/2000/svg" p-id="6972" xmlns:xlink="http://www.w3.org/1999/xlink" width="128" height="128"><path d="M332.032 621.568c-148.04992 0-268.032-117.26848-268.032-261.69856 0-144.42496 119.98208-261.68832 268.032-261.68832 148.05504 0 268.032 117.26336 268.032 261.68832-0.00512 144.4352-120.43776 261.69856-268.032 261.69856z m0-467.24096c-116.80768 0-212.34176 92.35968-212.34176 205.54752s95.0784 205.55264 212.34176 205.55264c116.80768 0 211.8912-92.3648 211.8912-205.55264S448.83968 154.32704 332.032 154.32704z" p-id="6973" fill="#2c2c2c"></path><path d="M691.968 621.568c-148.04992 0-268.032-117.26848-268.032-261.69856 0-144.42496 120.43264-261.68832 268.032-261.68832 147.59424 0 268.032 117.26336 268.032 261.68832 0 144.4352-119.98208 261.69856-268.032 261.69856z m0-467.24096c-116.80768 0-211.88608 92.35968-211.88608 205.54752s95.0784 205.55264 211.88608 205.55264 211.88608-92.3648 211.88608-205.55264-95.07328-205.54752-211.88608-205.54752z" p-id="6974" fill="#2c2c2c"></path><path d="M511.77472 925.81888c-148.05504 0-268.032-117.26848-268.032-261.69856 0-144.41984 120.43264-261.68832 268.032-261.68832 148.04992 0 268.032 117.26848 268.032 261.68832 0 144.43008-119.98208 261.69856-268.032 261.69856z m0-467.69664c-116.8128 0-211.8912 92.3648-211.8912 205.54752 0 113.18784 95.0784 205.54752 211.8912 205.54752 116.80768 0 212.34176-92.35968 212.34176-205.54752 0-113.18272-95.08352-205.54752-212.34176-205.54752z" p-id="6975" fill="#2c2c2c"></path></svg>