<?xml version="1.0" standalone="no"?><!DOCTYPE svg PUBLIC "-//W3C//DTD SVG 1.1//EN" "http://www.w3.org/Graphics/SVG/1.1/DTD/svg11.dtd"><svg t="1769175271170" class="icon" viewBox="0 0 1024 1024" version="1.1" xmlns="http://www.w3.org/2000/svg" p-id="1640" xmlns:xlink="http://www.w3.org/1999/xlink" width="128" height="128"><path d="M939.619077 566.495683 498.260365 1007.854395C477.950355 1028.164405 445.01059 1028.164405 424.70058 1007.854395 404.390569 987.544385 404.390569 954.60462 424.70058 934.29461L847.524274 511.470916 424.70058 88.647222C404.390569 68.337211 404.390569 35.431581 424.70058 15.121571 445.01059-5.222574 477.950355-5.222574 498.260365 15.121571L939.619077 456.480283C954.501706 471.362912 958.222364 492.970032 951.293066 511.470916 958.222364 530.005934 954.501706 551.613054 939.619077 566.495683ZM609.948354 511.470916C616.877652 530.005934 613.156995 551.613054 598.274365 566.495683L156.915653 1007.854395C136.605643 1028.164405 103.665878 1028.164405 83.355868 1007.854395 63.045858 987.544385 63.045858 954.60462 83.355868 934.29461L506.179562 511.470916 83.355868 88.647222C63.045858 68.337211 63.045858 35.431581 83.355868 15.121571 103.665878-5.222574 136.605643-5.222574 156.915653 15.121571L598.274365 456.480283C613.156995 471.362912 616.877652 492.970032 609.948354 511.470916Z" p-id="1641" fill="#ffffff"></path></svg>