<?xml version="1.0" standalone="no"?><!DOCTYPE svg PUBLIC "-//W3C//DTD SVG 1.1//EN" "http://www.w3.org/Graphics/SVG/1.1/DTD/svg11.dtd"><svg t="1769175288015" class="icon" viewBox="0 0 1024 1024" version="1.1" xmlns="http://www.w3.org/2000/svg" p-id="1861" xmlns:xlink="http://www.w3.org/1999/xlink" width="128" height="128"><path d="M516.846563 511.493075 939.623819 934.270331C959.931599 954.578111 959.931599 987.514258 939.623819 1007.822038 919.316039 1028.129817 886.379892 1028.129817 866.072113 1007.822038L424.761874 566.511799C409.880879 551.630804 406.16063 529.991926 413.089167 511.493075 406.16063 492.994223 409.880879 471.355345 424.761874 456.47435L866.072113 15.164111C886.379892-5.143668 919.316039-5.143668 939.623819 15.164111 959.931599 35.471891 959.931599 68.408038 939.623819 88.749949L516.846563 511.493075ZM175.53934 511.493075 598.316597 934.270331C618.624376 954.578111 618.624376 987.514258 598.316597 1007.822038 578.008817 1028.129817 545.07267 1028.129817 524.76489 1007.822038L83.454651 566.511799C68.573656 551.630804 64.853408 529.991926 71.781944 511.493075 64.853408 492.994223 68.573656 471.355345 83.454651 456.47435L524.76489 15.164111C545.07267-5.143668 578.008817-5.143668 598.316597 15.164111 618.624376 35.471891 618.624376 68.408038 598.316597 88.749949L175.53934 511.493075Z" p-id="1862" fill="#ffffff"></path></svg>