<?xml version="1.0" standalone="no"?><!DOCTYPE svg PUBLIC "-//W3C//DTD SVG 1.1//EN" "http://www.w3.org/Graphics/SVG/1.1/DTD/svg11.dtd"><svg t="1769177885764" class="icon" viewBox="0 0 1024 1024" version="1.1" xmlns="http://www.w3.org/2000/svg" p-id="2671" xmlns:xlink="http://www.w3.org/1999/xlink" width="128" height="128"><path d="M890.374697 1024H133.625303a68.966592 68.966592 0 0 1-68.845101-68.845101V459.237317a68.966592 68.966592 0 0 1 68.845101-68.895721h756.749394a68.976716 68.976716 0 0 1 68.895722 68.895721v495.866961a68.966592 68.966592 0 0 1-68.895722 68.895722zM133.625303 444.111644a15.328159 15.328159 0 0 0-15.125674 15.125673v495.866961a15.328159 15.328159 0 0 0 15.125674 15.125674h756.749394a15.328159 15.328159 0 0 0 15.125674-15.125674V459.237317a15.328159 15.328159 0 0 0-15.125674-15.125673z" fill="#ffffff" p-id="2672"></path><path d="M697.152823 222.481042c0-40.497118-18.486934-78.96938-52.069169-108.329791-34.84777-30.372838-81.247343-47.179142-130.653827-47.179142s-95.76556 16.836677-130.603205 47.422125c-33.612608 29.50215-52.119791 68.166774-52.119791 108.866377v189.779619h-66.972109V223.260611C264.734722 100.159497 376.74975 0 514.429827 0s249.695105 99.825396 249.695105 222.481042" fill="#ffffff" p-id="2673"></path><path d="M764.124932 187.106809m0 33.399998l0 1.214914q0 33.399998-33.399998 33.399998l-0.172113 0q-33.399998 0-33.399998-33.399998l0-1.214914q0-33.399998 33.399998-33.399998l0.172113 0q33.399998 0 33.399998 33.399998Z" fill="#ffffff" p-id="2674"></path><path d="M511.43304 663.474408m-55.683537 0a55.683537 55.683537 0 1 0 111.367075 0 55.683537 55.683537 0 1 0-111.367075 0Z" fill="#ffffff" p-id="2675"></path><path d="M478.76199 672.110418m10.12428 0l44.54683 0q10.124279 0 10.124279 10.124279l0 128.254373q0 10.124279-10.124279 10.124279l-44.54683 0q-10.124279 0-10.12428-10.124279l0-128.254373q0-10.124279 10.12428-10.124279Z" fill="#ffffff" p-id="2676"></path></svg>