<?xml version="1.0" standalone="no"?><!DOCTYPE svg PUBLIC "-//W3C//DTD SVG 1.1//EN" "http://www.w3.org/Graphics/SVG/1.1/DTD/svg11.dtd"><svg t="1769501770901" class="icon" viewBox="0 0 1024 1024" version="1.1" xmlns="http://www.w3.org/2000/svg" p-id="10607" xmlns:xlink="http://www.w3.org/1999/xlink" width="128" height="128"><path d="M836.266667 243.2c-115.2-183.466667-307.2-81.066667-307.2-81.066667C251.733333 21.333333 170.666667 294.4 170.666667 294.4c-243.2 38.4-132.266667 234.666667-132.266667 234.666667-102.4 166.4 102.4 230.4 102.4 230.4 110.933333 34.133333 264.533333 149.333333 264.533333 149.333333 213.333333 128 375.466667-46.933333 375.466667-46.933333 179.2-123.733333 204.8-448 204.8-448C998.4 221.866667 836.266667 243.2 836.266667 243.2zM921.6 430.933333c0 0-25.6 277.333333-183.466667 388.266667 0 0-128 145.066667-302.933333 34.133333 0 0-166.4-123.733333-264.533333-149.333333 8.533333 0-179.2-38.4-55.466667-174.933333 0 0-140.8-166.4 102.4-179.2 0 0 46.933333-273.066667 311.466667-119.466667 0 0 174.933333-123.733333 277.333333 81.066667C806.4 315.733333 938.666667 256 921.6 430.933333z" fill="#FF4965" p-id="10608"></path><path d="M814.933333 379.733333c0-4.266667 0-12.8-4.266667-17.066667-8.533333-8.533333-21.333333-8.533333-29.866667 0-4.266667 4.266667-8.533333 12.8-4.266667 21.333333 12.8 153.6-59.733333 307.2-106.666667 388.266667 0 0 0 0 0 0-4.266667 8.533333-4.266667 21.333333 0 25.6 8.533333 8.533333 21.333333 8.533333 29.866667 0 4.266667-4.266667 4.266667-4.266667 4.266667-8.533333 0 0 0 0 0 0C704 789.333333 836.266667 571.733333 814.933333 379.733333z" fill="#FF4965" p-id="10609"></path><path d="M558.933333 307.2c0 0-4.266667-4.266667-4.266667-4.266667-8.533333-4.266667-21.333333 0-29.866667 8.533333-4.266667 8.533333-4.266667 21.333333 4.266667 25.6 0 0 0 0 0 0 102.4 136.533333 68.266667 341.333333 51.2 435.2-4.266667 8.533333 0 21.333333 8.533333 25.6 8.533333 4.266667 21.333333 0 29.866667-8.533333 0-4.266667 4.266667-4.266667 4.266667-8.533333 0 0 0 0 0 0C622.933333 785.066667 695.466667 477.866667 558.933333 307.2 558.933333 307.2 558.933333 307.2 558.933333 307.2z" fill="#FF4965" p-id="10610"></path><path d="M533.333333 772.266667c0 0-115.2-341.333333-264.533333-375.466667 0 0 0 0 0 0 0 0-4.266667 0-4.266667 0-12.8 0-21.333333 8.533333-21.333333 21.333333s8.533333 21.333333 21.333333 21.333333c0 0 0 0 0 0 0 0 0 0 0 0s106.666667 12.8 230.4 345.6c0 8.533333 8.533333 17.066667 21.333333 17.066667 12.8 0 21.333333-8.533333 21.333333-21.333333C533.333333 780.8 533.333333 776.533333 533.333333 772.266667 533.333333 772.266667 533.333333 772.266667 533.333333 772.266667z" fill="#FF4965" p-id="10611"></path></svg>