<?xml version="1.0" standalone="no"?><!DOCTYPE svg PUBLIC "-//W3C//DTD SVG 1.1//EN" "http://www.w3.org/Graphics/SVG/1.1/DTD/svg11.dtd"><svg t="1769153973205" class="icon" viewBox="0 0 1024 1024" version="1.1" xmlns="http://www.w3.org/2000/svg" p-id="2772" width="128" height="128" xmlns:xlink="http://www.w3.org/1999/xlink"><path d="M832.78658333 111.50222222L191.21341667 111.50222222C147.18293333 111.50222222 111.50222222 147.47420445 111.50222222 191.21341667l0 641.52462223C111.50222222 876.81706667 147.47420445 912.49777778 191.21341667 912.49777778l641.52462223 0c44.03048334 0 79.71119445-35.97198222 79.71119445-79.71119445L912.44923221 191.21341667C912.49777778 147.18293333 876.52579555 111.50222222 832.78658333 111.50222222zM839.2916389 839.68c0-0.33981667-654.9716389-0.3883611-654.9716389-0.3883611C184.65981667 839.2916389 184.7083611 184.32 184.7083611 184.32 184.7083611 184.65981667 839.68 184.7083611 839.68 184.7083611 839.34018333 184.7083611 839.2916389 839.68 839.2916389 839.68z" p-id="2773" fill="#ffffff"></path><path d="M730.06497223 704.82147555l0.3883611 0.19418112L730.45333333 327.28556999c-1.31072-21.16570112-15.87427555-32.42818333-43.6421211-33.73890332L452.58069333 293.54666667c-14.56355555 1.31072-22.47642112 10.58284999-23.83568554 27.76784554 1.31072 17.18499555 9.27212999 26.45712555 23.83568554 27.76784555l216.31734557 0c3.98070557 0 5.97105778 1.99035221 5.97105777 5.97105778l0 321.5147611 0.53399666 0.29127111-74.85667555 0c-7.62159445 0-20.00061667 9.90321778-20.97152 25.77749334 0.97090333 17.18499555 11.50520889 26.45712555 20.97152 27.76784554l112.57628444 0C723.12300999 729.1911589 728.75425223 720.64720555 730.06497223 704.82147555zM472.43567445 428.5022811c-13.25283555-1.31072-20.48606777-10.58284999-21.84533333-27.76784555 1.31072-15.87427555 8.59249778-24.46677333 21.84533333-25.77749333l162.72346112 0c15.87427555 1.31072 24.46677333 9.90321778 25.77749334 25.77749333-1.31072 17.18499555-9.27212999 26.45712555-23.83568555 27.76784555L472.43567445 428.5022811zM310.29475555 347.14055111C302.52752555 345.82983111 285.24544 336.55770112 284.46871666 319.32416 285.24544 303.44988445 299.71190557 294.85738667 307.52768 293.54666667l63.98255445 0c9.36922112 1.31072 22.76769223 9.90321778 23.54441444 25.77749333C394.32647111 336.55770112 380.10273223 345.82983111 371.51023445 347.14055111L310.29475555 347.14055111zM387.0932389 675.40309333l0-233.01688888c1.31072-29.12711111-9.90321778-43.01103445-33.73890333-41.70031446L305.73150777 400.68588999C291.16795221 402.04515555 283.25508779 411.31728555 281.89582222 428.5022811c1.31072 18.54426112 9.27212999 28.4474789 23.83568555 29.7581989L325.58648889 458.26048c3.98070557 0 5.97105778 1.99035221 5.97105778 5.97105778l0 235.15287665c-0.09708999 0.58254222-0.14563555 1.21363001-0.14563556 1.84471666 0.14563555 3.44670777 0.97090333 6.5536 2.2330789 9.36922112 3.30107221 10.82557667 8.98085888 16.45681778 21.74824334 19.61225444 2.13598777 0.33981667 4.22343111-0.09708999 6.31087446-1.21363001l55.92405333 0c8.2526811-1.31072 23.64150557-10.58284999 24.41822777-27.76784555-0.72817778-15.87427555-15.38882333-24.46677333-24.41822777-25.77749333 0 0-13.83537778 0-28.30184335 0L387.0932389 675.4516389zM498.26171221 650.79068445c-27.76784555 0-41.70031445-13.25283555-41.70031445-39.70996111L456.5613989 495.98008889c0-26.45712555 11.89356999-39.7099611 35.72925667-39.7099611l117.09098667 0c27.76784555 0 41.0206811 11.26248334 39.7099611 33.73890332l0 121.07169223c0 26.45712555-11.89356999 39.7099611-35.72925667 39.70996111L498.26171221 650.79068445zM512.14563555 593.21609443c1.31072 2.66998557 3.30107221 4.61179221 5.97105778 5.97105778l69.46816 0c3.98070557 0 5.97105778-1.99035221 5.97105778-5.97105778L593.55591111 515.83507001c0-3.98070557-1.99035221-5.97105778-5.97105778-5.97105778L518.06814777 509.86401223c-3.98070557 0-5.97105778 1.99035221-5.97105778 5.97105778L512.09708999 593.21609443z" p-id="2774" fill="#ffffff"></path></svg>